<?xml version="1.0" standalone="no"?>
<!DOCTYPE svg PUBLIC "-//W3C//DTD SVG 20010904//EN"
 "http://www.w3.org/TR/2001/REC-SVG-20010904/DTD/svg10.dtd">
<svg version="1.0" xmlns="http://www.w3.org/2000/svg"
 width="260.000000pt" height="260.000000pt" viewBox="0 0 260.000000 260.000000"
 preserveAspectRatio="xMidYMid meet">
<metadata>
Created by potrace 1.11, written by Peter Selinger 2001-2013
</metadata>
<g transform="translate(0.000000,260.000000) scale(0.100000,-0.100000)"
fill="#000000" stroke="none">
<path d="M917 2586 c-60 -22 -97 -57 -128 -123 -14 -31 -27 -44 -47 -48 -210
-43 -345 -142 -405 -299 -25 -65 -31 -207 -12 -301 42 -219 173 -450 367 -650
128 -133 140 -148 173 -214 39 -78 50 -127 54 -238 l2 -102 -268 -3 c-249 -3
-271 -4 -314 -24 -63 -29 -126 -94 -155 -159 -66 -149 4 -329 155 -399 46 -21
48 -21 951 -23 884 -2 906 -2 957 18 129 50 212 192 191 327 -12 73 -40 126
-99 182 l-49 47 0 155 c0 146 -1 157 -26 206 -84 170 -318 169 -406 -1 -19
-36 -22 -60 -24 -177 -1 -74 -3 -138 -3 -142 -1 -5 -69 -8 -152 -8 l-150 0 2
102 c1 56 6 116 11 133 5 16 11 37 13 47 13 57 77 148 165 233 252 245 408
549 415 808 5 143 -33 246 -120 332 -50 50 -154 109 -225 130 -28 8 -79 19
-94 20 -13 1 -24 14 -31 34 -16 49 -68 105 -117 129 -40 19 -62 20 -318 21
-209 0 -284 -3 -313 -13z m565 -147 c39 -16 52 -57 45 -149 -10 -127 -62 -210
-172 -268 -68 -36 -187 -38 -257 -4 -105 50 -166 143 -175 268 -7 100 0 129
34 147 33 18 483 23 525 6z m364 -234 c122 -72 163 -198 123 -379 -44 -200
-160 -394 -348 -582 l-91 -91 0 399 0 399 40 47 c44 53 95 158 104 216 4 21 8
42 11 46 6 10 109 -25 161 -55z m-1068 -5 c15 -72 61 -163 107 -210 l34 -35 0
-397 c0 -219 -2 -398 -3 -398 -7 0 -169 163 -203 205 -141 174 -241 398 -247
555 -7 174 63 273 229 326 67 21 70 20 83 -46z m457 -353 c50 1 101 3 115 5
l25 3 0 -90 -1 -90 -139 -1 c-77 0 -146 2 -152 4 -9 3 -13 31 -13 94 l0 89 38
-8 c20 -4 78 -7 127 -6z m140 -398 l0 -74 -152 -3 -153 -3 0 75 c0 62 3 75 17
78 9 2 77 3 152 2 l135 0 1 -75z m0 -299 c1 -36 0 -69 -2 -75 -3 -8 -219 -13
-290 -6 -14 1 -19 132 -6 145 4 3 72 5 152 4 l146 -3 0 -65z m-9 -239 c6 -1
10 -30 10 -73 l-1 -73 -152 -1 -153 -1 0 72 c0 39 2 74 4 76 4 3 256 3 292 0z
m751 -23 c15 -17 18 -39 18 -147 l0 -126 -75 0 -75 0 0 106 c0 59 3 120 7 137
15 57 86 73 125 30z m-742 -355 c0 -43 -4 -73 -10 -74 -78 -6 -278 -2 -284 6
-5 6 -9 40 -10 78 l-2 68 153 -3 153 -3 0 -72z m-439 -129 c18 -72 58 -153 99
-199 19 -22 35 -43 35 -46 0 -4 -148 -6 -329 -5 -317 1 -331 2 -358 22 -83 62
-96 161 -30 233 41 45 64 48 324 47 l246 -1 13 -51z m1281 30 c96 -71 96 -187
0 -258 -27 -20 -41 -21 -275 -21 -236 0 -249 1 -288 22 -47 25 -95 82 -112
132 -7 19 -12 60 -12 91 l0 57 329 -1 c318 -1 331 -2 358 -22z m-844 -133 c9
0 17 -9 17 -18 0 -10 14 -44 29 -76 l29 -58 -46 6 c-26 4 -74 20 -107 35 -60
28 -148 96 -141 109 4 5 155 7 219 2z"/>
</g>
</svg>
